<?xml version="1.0" encoding="utf-8"?>
<!-- Generator: Adobe Illustrator 16.0.0, SVG Export Plug-In . SVG Version: 6.00 Build 0)  -->
<!DOCTYPE svg PUBLIC "-//W3C//DTD SVG 1.1//EN" "http://www.w3.org/Graphics/SVG/1.1/DTD/svg11.dtd">
<svg version="1.1" xmlns="http://www.w3.org/2000/svg" xmlns:xlink="http://www.w3.org/1999/xlink" x="0px" y="0px" width="24px"
	 height="24px" viewBox="0 0 24 24" enable-background="new 0 0 24 24" xml:space="preserve">
<g id="Ebene_3">
</g>
<g id="Ebene_1">
	<g>
		<polygon fill="#FFFFFF" points="7.35,10.881 8.916,13.589 15.777,10.333 13.527,6.584 		"/>
		<path fill="#FFFFFF" d="M4.344,12.972c-0.168,0.117-0.218,0.342-0.115,0.52l0.87,1.508c0.103,0.178,0.325,0.248,0.511,0.158
			l2.234-1.061l-1.467-2.539L4.344,12.972z"/>
		<path fill="#FFFFFF" d="M12,0C5.373,0,0,5.373,0,12c0,6.626,5.373,12,12,12c6.627,0,12-5.373,12-12C24,5.373,18.627,0,12,0z
			 M16.396,20.179c-0.275,0.176-0.641,0.096-0.816-0.178l-2.836-4.422v4.898c0,0.326-0.264,0.592-0.59,0.592
			s-0.592-0.266-0.592-0.592v-4.441l-0.402,0.182l-2.465,3.785c-0.18,0.26-0.527,0.332-0.795,0.168
			c-0.278-0.17-0.365-0.533-0.195-0.813l2.561-3.93c0.061-0.094,0.148-0.168,0.25-0.215l2.166-0.984
			c0.268-0.121,0.582-0.029,0.742,0.219l3.15,4.914C16.75,19.636,16.67,20.003,16.396,20.179z M20.25,9.511
			c-0.047,0.028-0.096,0.054-0.145,0.077l-13.99,6.64c-0.742,0.352-1.629,0.074-2.039-0.637l-0.871-1.51
			c-0.41-0.709-0.207-1.61,0.465-2.078l12.633-8.789c0.715-0.497,1.695-0.321,2.191,0.393c0.02,0.026,0.037,0.054,0.055,0.081
			l2.227,3.658C21.229,8.089,20.992,9.058,20.25,9.511z"/>
		<path fill="#FFFFFF" d="M19.766,7.959l-2.227-3.657c-0.113-0.187-0.357-0.245-0.545-0.13c-0.006,0.003-0.01,0.007-0.016,0.011
			l-2.48,1.725l2.352,3.918V9.824L19.6,8.52c0.195-0.092,0.279-0.325,0.188-0.521C19.781,7.985,19.773,7.972,19.766,7.959z"/>
	</g>
</g>
</svg>
