<?xml version="1.0" encoding="UTF-8"?>
<svg id="Layer_1" data-name="Layer 1" xmlns="http://www.w3.org/2000/svg" viewBox="0 0 498.32 498.32">
  <defs>
    <style>
      .cls-1 {
        fill: #fff;
      }
    </style>
  </defs>
  <circle class="cls-1" cx="249.16" cy="249.16" r="249.16"/>
  <path d="m378.41,228.75c-.06-.14-.13-.27-.21-.39l-42.27-75.2v-53.44c0-10.75-8.72-19.47-19.47-19.47h-133.52c-10.75,0-19.47,8.72-19.47,19.47v53.46l-42.28,75.17c-.08.12-.15.25-.21.39-3.23,6.52-2.55,14.3,1.77,20.17.04.05.08.1.11.15l120.22,156.16c2.81,3.65,8.05,4.33,11.7,1.52.57-.44,1.08-.95,1.52-1.52l120.21-156.16c.03-.05.07-.11.11-.15,4.32-5.86,5-13.64,1.78-20.17ZM182.95,96.94h133.52c1.54,0,2.78,1.25,2.78,2.78v47.29h-139.08v-47.29c0-1.54,1.25-2.78,2.78-2.78Zm66.76,161.34c-10.75,0-19.47-8.72-19.47-19.47s8.72-19.47,19.47-19.47,19.47,8.72,19.47,19.47-8.72,19.47-19.47,19.47Zm113.53-19.3l-105.19,136.66v-101.66c19.43-4.61,31.45-24.1,26.84-43.53-4.61-19.43-24.1-31.45-43.53-26.84-19.43,4.61-31.45,24.1-26.84,43.53,3.15,13.3,13.54,23.69,26.84,26.84v101.63l-105.19-136.63c-.55-.79-.65-1.8-.28-2.68l40.82-72.59h146.04l40.81,72.59c.36.89.24,1.9-.32,2.68Z"/>
</svg>